<?xml version="1.0" encoding="utf-8"?>
<!-- Generator: Adobe Illustrator 21.1.0, SVG Export Plug-In . SVG Version: 6.00 Build 0)  -->
<svg version="1.1" id="Layer_1" xmlns="http://www.w3.org/2000/svg" xmlns:xlink="http://www.w3.org/1999/xlink" x="0px" y="0px"
	 viewBox="0 0 512 512" style="enable-background:new 0 0 512 512;" xml:space="preserve">
<style type="text/css">
	.st0{fill:#F2F2F2;}
	.st1{opacity:0.1;fill:#231F20;enable-background:new    ;}
	.st2{fill:#F4A83B;}
	.st3{opacity:5.000000e-02;fill:#231F20;enable-background:new    ;}
	.st4{opacity:1.000000e-03;}
	.st5{fill:#231F20;}
</style>
<path class="st0" d="M460.7,145.1l-7.5-12.8H285.8v362.7l38.4-19.2c8.5-4.3,30.9-14.9,56.5-29.9c37.3-21.3,81.1-49.1,97.1-72.5
	C540.7,280.5,463.9,150.4,460.7,145.1z M433,344.5c-6.4,9.6-27.7,24.5-52.3,40.5c-12.8,8.5-27.7,16-41.6,23.5V185.6h82.1
	C436.2,216.5,468.2,293.3,433,344.5z"/>
<path class="st1" d="M339.1,185.6v222.9c13.9-7.5,27.7-16,41.6-23.5v61.9c-25.6,13.9-48,25.6-56.5,29.9L285.8,496V133.3h94.9v53.3
	h-41.6V185.6z"/>
<path class="st0" d="M343.4,512H38.3c-11.7,0-21.3-9.6-21.3-21.3v-416h347.7v416C364.7,502.4,355.1,512,343.4,512z"/>
<path class="st2" d="M140.7,483H62.8c-11.7,0-21.3-11.1-21.3-24.7V74.7h100.3V483L140.7,483L140.7,483z"/>
<rect x="140.7" y="74.7" class="st2" width="100.3" height="408.3"/>
<path class="st2" d="M318.9,483h-78.9V74.7h100.3v383.7C340.2,471.9,330.6,483,318.9,483z"/>
<g>
	<path class="st0" d="M335.9,39.5c-11.7,0-22.4,4.3-30.9,10.7c-2.1-2.1-4.3-3.2-7.5-4.3c-4.3-20.3-22.4-36.3-43.7-36.3
		c-17.1,0-32,9.6-39.5,24.5C210.1,14.9,191.9,0,171.6,0c-19.2,0-36.3,12.8-41.6,29.9c-7.5-7.5-18.1-11.7-28.8-11.7
		c-22.4,0-39.5,17.1-42.7,37.3c-3.2-1.1-7.5-2.1-10.7-2.1c-21.3,0-38.4,17.1-38.4,38.4s17.1,38.4,38.4,38.4
		c10.7,0,19.2-4.3,26.7-10.7c3.2,4.3,6.4,7.5,10.7,9.6v60.8c0,7.5,6.4,12.8,12.8,12.8c7.5,0,12.8-6.4,12.8-12.8v-54.4
		c8.5-1.1,16-4.3,21.3-8.5c7.5,5.3,16,9.6,26.7,9.6c3.2,0,6.4,0,8.5-1.1c2.1,1.1,4.3,2.1,6.4,3.2v84.3c0,9.6,8.5,18.1,18.1,18.1l0,0
		c9.6,0,18.1-8.5,18.1-18.1v-84.3c8.5-3.2,14.9-8.5,20.3-16c9.6,13.9,25.6,22.4,42.7,22.4c11.7,0,22.4-4.3,30.9-10.7
		c8.5,6.4,19.2,10.7,30.9,10.7c28.8,0,52.3-23.5,52.3-52.3C388.2,62.9,364.7,39.5,335.9,39.5z"/>
	<path class="st0" d="M218.6,28.8c-1.1,1.1-3.2,2.1-4.3,3.2c0,1.1,1.1,1.1,1.1,2.1C215.4,32,216.4,29.9,218.6,28.8z"/>
</g>
<g>
	<path class="st3" d="M335.9,144c-11.7,0-22.4-4.3-30.9-10.7c-8.5,6.4-19.2,10.7-30.9,10.7c-18.1,0-33.1-8.5-42.7-22.4
		c-5.3,6.4-12.8,12.8-20.3,16v4.3c3.2-3.2,7.5-6.4,9.6-9.6c9.6,13.9,25.6,22.4,42.7,22.4c11.7,0,22.4-4.3,30.9-10.7
		c8.5,6.4,19.2,10.7,30.9,10.7c17.1,0,32-8.5,41.6-21.3C358.3,140.8,347.6,144,335.9,144z"/>
	<path class="st3" d="M193,240L193,240c-9.6,0-18.1-8.5-18.1-18.1v-84.3c-2.1-1.1-4.3-2.1-6.4-3.2c-3.2,1.1-6.4,1.1-8.5,1.1
		c-9.6,0-19.2-3.2-26.7-9.6c-6.4,4.3-13.9,7.5-21.3,8.5v8.5c4.3-1.1,7.5-3.2,10.7-6.4c7.5,5.3,16,9.6,26.7,9.6c3.2,0,6.4,0,8.5-1.1
		c2.1,1.1,4.3,2.1,6.4,3.2v84.3c0,9.6,8.5,18.1,18.1,18.1l0,0c7.5,0,13.9-5.3,17.1-11.7C197.3,238.9,195.1,240,193,240z"/>
	<path class="st3" d="M84.2,188.8V128c-4.3-2.1-7.5-5.3-10.7-9.6c-6.4,6.4-16,10.7-26.7,10.7c-12.8,0-23.5-6.4-29.9-14.9v20.3
		c5.3,3.2,11.7,5.3,19.2,5.3c10.7,0,19.2-4.3,26.7-10.7c3.2,4.3,6.4,7.5,10.7,9.6v60.8c0,7.5,6.4,12.8,12.8,12.8s11.7-5.3,12.8-10.7
		c-1.1,0-1.1,0-2.1,0C90.6,202.7,84.2,196.3,84.2,188.8z"/>
	<g class="st4">
		<path class="st5" d="M66.1,37.3c6.4-5.3,14.9-8.5,24.5-8.5c11.7,0,21.3,4.3,28.8,11.7c2.1-5.3,4.3-9.6,7.5-12.8
			c-7.5-5.3-16-8.5-25.6-8.5C86.3,18.1,73.5,25.6,66.1,37.3z"/>
		<path class="st5" d="M171.6,0c-14.9,0-27.7,7.5-36.3,19.2c7.5-5.3,16-8.5,25.6-8.5c21.3,0,38.4,14.9,42.7,34.1
			c2.1-5.3,6.4-9.6,9.6-12.8C209,13.9,191.9,0,171.6,0z"/>
		<path class="st5" d="M335.9,39.5c-11.7,0-22.4,4.3-30.9,10.7c-2.1-2.1-4.3-3.2-7.5-4.3c-4.3-20.3-22.4-36.3-43.7-36.3
			c-14.9,0-27.7,7.5-36.3,19.2c7.5-5.3,16-8.5,25.6-8.5c21.3,0,39.5,16,43.7,36.3c2.1,1.1,4.3,2.1,7.5,4.3
			c8.5-6.4,19.2-10.7,30.9-10.7c28.8,0,52.3,23.5,52.3,52.3c0,11.7-4.3,22.4-10.7,30.9c12.8-9.6,21.3-24.5,21.3-41.6
			C388.2,62.9,364.7,39.5,335.9,39.5z"/>
	</g>
</g>
</svg>
